<svg xmlns="http://www.w3.org/2000/svg" xmlns:xlink="http://www.w3.org/1999/xlink" width="1500" zoomAndPan="magnify" viewBox="0 0 1125 1124.99995" height="1500" preserveAspectRatio="xMidYMid meet" version="1.0"><defs><linearGradient x1="0.0000133333" gradientTransform="matrix(0.75, 0, 0, 0.75, 0.000025, -0.00002)" y1="0.0000133333" x2="1499.999937" gradientUnits="userSpaceOnUse" y2="1499.999937" id="2728e959d0"><stop stop-opacity="1" stop-color="rgb(5.099487%, 0%, 64.309692%)" offset="0"/><stop stop-opacity="1" stop-color="rgb(5.236816%, 0%, 64.234924%)" offset="0.0078125"/><stop stop-opacity="1" stop-color="rgb(5.513%, 0%, 64.08844%)" offset="0.015625"/><stop stop-opacity="1" stop-color="rgb(5.787659%, 0%, 63.941956%)" offset="0.0234375"/><stop stop-opacity="1" stop-color="rgb(6.063843%, 0%, 63.793945%)" offset="0.03125"/><stop stop-opacity="1" stop-color="rgb(6.340027%, 0%, 63.647461%)" offset="0.0390625"/><stop stop-opacity="1" stop-color="rgb(6.614685%, 0%, 63.500977%)" offset="0.046875"/><stop stop-opacity="1" stop-color="rgb(6.890869%, 0%, 63.352966%)" offset="0.0546875"/><stop stop-opacity="1" stop-color="rgb(7.167053%, 0%, 63.206482%)" offset="0.0625"/><stop stop-opacity="1" stop-color="rgb(7.441711%, 0%, 63.058472%)" offset="0.0703125"/><stop stop-opacity="1" stop-color="rgb(7.717896%, 0%, 62.911987%)" offset="0.078125"/><stop stop-opacity="1" stop-color="rgb(7.99408%, 0%, 62.765503%)" offset="0.0859375"/><stop stop-opacity="1" stop-color="rgb(8.268738%, 0%, 62.617493%)" offset="0.09375"/><stop stop-opacity="1" stop-color="rgb(8.544922%, 0%, 62.471008%)" offset="0.101562"/><stop stop-opacity="1" stop-color="rgb(8.821106%, 0%, 62.324524%)" offset="0.109375"/><stop stop-opacity="1" stop-color="rgb(9.095764%, 0%, 62.176514%)" offset="0.117187"/><stop stop-opacity="1" stop-color="rgb(9.371948%, 0%, 62.030029%)" offset="0.125"/><stop stop-opacity="1" stop-color="rgb(9.648132%, 0%, 61.883545%)" offset="0.132812"/><stop stop-opacity="1" stop-color="rgb(9.922791%, 0%, 61.735535%)" offset="0.140625"/><stop stop-opacity="1" stop-color="rgb(10.198975%, 0%, 61.58905%)" offset="0.148437"/><stop stop-opacity="1" stop-color="rgb(10.475159%, 0%, 61.442566%)" offset="0.15625"/><stop stop-opacity="1" stop-color="rgb(10.751343%, 0%, 61.294556%)" offset="0.164062"/><stop stop-opacity="1" stop-color="rgb(11.026001%, 0%, 61.148071%)" offset="0.171875"/><stop stop-opacity="1" stop-color="rgb(11.302185%, 0%, 61.000061%)" offset="0.179687"/><stop stop-opacity="1" stop-color="rgb(11.578369%, 0%, 60.853577%)" offset="0.1875"/><stop stop-opacity="1" stop-color="rgb(11.853027%, 0%, 60.707092%)" offset="0.195312"/><stop stop-opacity="1" stop-color="rgb(12.129211%, 0%, 60.559082%)" offset="0.203125"/><stop stop-opacity="1" stop-color="rgb(12.405396%, 0%, 60.412598%)" offset="0.210937"/><stop stop-opacity="1" stop-color="rgb(12.680054%, 0%, 60.266113%)" offset="0.21875"/><stop stop-opacity="1" stop-color="rgb(12.956238%, 0%, 60.118103%)" offset="0.226562"/><stop stop-opacity="1" stop-color="rgb(13.232422%, 0%, 59.971619%)" offset="0.234375"/><stop stop-opacity="1" stop-color="rgb(13.50708%, 0%, 59.825134%)" offset="0.242187"/><stop stop-opacity="1" stop-color="rgb(13.783264%, 0%, 59.677124%)" offset="0.25"/><stop stop-opacity="1" stop-color="rgb(14.059448%, 0%, 59.53064%)" offset="0.257813"/><stop stop-opacity="1" stop-color="rgb(14.334106%, 0%, 59.384155%)" offset="0.265625"/><stop stop-opacity="1" stop-color="rgb(14.610291%, 0%, 59.236145%)" offset="0.273438"/><stop stop-opacity="1" stop-color="rgb(14.886475%, 0%, 59.089661%)" offset="0.28125"/><stop stop-opacity="1" stop-color="rgb(15.161133%, 0%, 58.94165%)" offset="0.289063"/><stop stop-opacity="1" stop-color="rgb(15.437317%, 0%, 58.795166%)" offset="0.296875"/><stop stop-opacity="1" stop-color="rgb(15.713501%, 0%, 58.648682%)" offset="0.304688"/><stop stop-opacity="1" stop-color="rgb(15.989685%, 0%, 58.500671%)" offset="0.3125"/><stop stop-opacity="1" stop-color="rgb(16.264343%, 0%, 58.354187%)" offset="0.320312"/><stop stop-opacity="1" stop-color="rgb(16.540527%, 0%, 58.207703%)" offset="0.328125"/><stop stop-opacity="1" stop-color="rgb(16.816711%, 0%, 58.059692%)" offset="0.335938"/><stop stop-opacity="1" stop-color="rgb(17.09137%, 0%, 57.913208%)" offset="0.34375"/><stop stop-opacity="1" stop-color="rgb(17.367554%, 0%, 57.766724%)" offset="0.351562"/><stop stop-opacity="1" stop-color="rgb(17.643738%, 0%, 57.618713%)" offset="0.359375"/><stop stop-opacity="1" stop-color="rgb(17.918396%, 0%, 57.472229%)" offset="0.367188"/><stop stop-opacity="1" stop-color="rgb(18.19458%, 0%, 57.324219%)" offset="0.375"/><stop stop-opacity="1" stop-color="rgb(18.470764%, 0%, 57.177734%)" offset="0.382812"/><stop stop-opacity="1" stop-color="rgb(18.745422%, 0%, 57.03125%)" offset="0.390625"/><stop stop-opacity="1" stop-color="rgb(19.021606%, 0%, 56.88324%)" offset="0.398437"/><stop stop-opacity="1" stop-color="rgb(19.297791%, 0%, 56.736755%)" offset="0.40625"/><stop stop-opacity="1" stop-color="rgb(19.572449%, 0%, 56.590271%)" offset="0.414062"/><stop stop-opacity="1" stop-color="rgb(19.848633%, 0%, 56.442261%)" offset="0.421875"/><stop stop-opacity="1" stop-color="rgb(20.124817%, 0%, 56.295776%)" offset="0.429687"/><stop stop-opacity="1" stop-color="rgb(20.399475%, 0%, 56.149292%)" offset="0.4375"/><stop stop-opacity="1" stop-color="rgb(20.675659%, 0%, 56.001282%)" offset="0.445313"/><stop stop-opacity="1" stop-color="rgb(20.951843%, 0%, 55.854797%)" offset="0.453125"/><stop stop-opacity="1" stop-color="rgb(21.228027%, 0%, 55.708313%)" offset="0.460938"/><stop stop-opacity="1" stop-color="rgb(21.502686%, 0%, 55.560303%)" offset="0.46875"/><stop stop-opacity="1" stop-color="rgb(21.77887%, 0%, 55.413818%)" offset="0.476562"/><stop stop-opacity="1" stop-color="rgb(22.055054%, 0%, 55.265808%)" offset="0.484375"/><stop stop-opacity="1" stop-color="rgb(22.329712%, 0%, 55.119324%)" offset="0.492188"/><stop stop-opacity="1" stop-color="rgb(22.605896%, 0%, 54.972839%)" offset="0.5"/><stop stop-opacity="1" stop-color="rgb(22.744751%, 0%, 54.899597%)" offset="0.5"/><stop stop-opacity="1" stop-color="rgb(22.88208%, 0%, 54.824829%)" offset="0.5"/><stop stop-opacity="1" stop-color="rgb(23.019409%, 0%, 54.751587%)" offset="0.507812"/><stop stop-opacity="1" stop-color="rgb(23.156738%, 0%, 54.678345%)" offset="0.515625"/><stop stop-opacity="1" stop-color="rgb(23.432922%, 0%, 54.53186%)" offset="0.523438"/><stop stop-opacity="1" stop-color="rgb(23.709106%, 0%, 54.38385%)" offset="0.53125"/><stop stop-opacity="1" stop-color="rgb(23.983765%, 0%, 54.237366%)" offset="0.539062"/><stop stop-opacity="1" stop-color="rgb(24.259949%, 0%, 54.090881%)" offset="0.546875"/><stop stop-opacity="1" stop-color="rgb(24.536133%, 0%, 53.942871%)" offset="0.554688"/><stop stop-opacity="1" stop-color="rgb(24.810791%, 0%, 53.796387%)" offset="0.5625"/><stop stop-opacity="1" stop-color="rgb(25.086975%, 0%, 53.649902%)" offset="0.570312"/><stop stop-opacity="1" stop-color="rgb(25.363159%, 0%, 53.501892%)" offset="0.578125"/><stop stop-opacity="1" stop-color="rgb(25.639343%, 0%, 53.355408%)" offset="0.585937"/><stop stop-opacity="1" stop-color="rgb(25.914001%, 0%, 53.207397%)" offset="0.59375"/><stop stop-opacity="1" stop-color="rgb(26.190186%, 0%, 53.060913%)" offset="0.601562"/><stop stop-opacity="1" stop-color="rgb(26.46637%, 0%, 52.914429%)" offset="0.609375"/><stop stop-opacity="1" stop-color="rgb(26.741028%, 0%, 52.766418%)" offset="0.617188"/><stop stop-opacity="1" stop-color="rgb(27.017212%, 0%, 52.619934%)" offset="0.625"/><stop stop-opacity="1" stop-color="rgb(27.293396%, 0%, 52.47345%)" offset="0.632812"/><stop stop-opacity="1" stop-color="rgb(27.568054%, 0%, 52.325439%)" offset="0.640625"/><stop stop-opacity="1" stop-color="rgb(27.844238%, 0%, 52.178955%)" offset="0.648438"/><stop stop-opacity="1" stop-color="rgb(28.120422%, 0%, 52.032471%)" offset="0.65625"/><stop stop-opacity="1" stop-color="rgb(28.395081%, 0%, 51.88446%)" offset="0.664063"/><stop stop-opacity="1" stop-color="rgb(28.671265%, 0%, 51.737976%)" offset="0.671875"/><stop stop-opacity="1" stop-color="rgb(28.947449%, 0%, 51.591492%)" offset="0.679688"/><stop stop-opacity="1" stop-color="rgb(29.222107%, 0%, 51.443481%)" offset="0.6875"/><stop stop-opacity="1" stop-color="rgb(29.498291%, 0%, 51.296997%)" offset="0.695313"/><stop stop-opacity="1" stop-color="rgb(29.774475%, 0%, 51.148987%)" offset="0.703125"/><stop stop-opacity="1" stop-color="rgb(30.049133%, 0%, 51.002502%)" offset="0.710938"/><stop stop-opacity="1" stop-color="rgb(30.325317%, 0%, 50.856018%)" offset="0.71875"/><stop stop-opacity="1" stop-color="rgb(30.601501%, 0%, 50.708008%)" offset="0.726563"/><stop stop-opacity="1" stop-color="rgb(30.877686%, 0%, 50.561523%)" offset="0.734375"/><stop stop-opacity="1" stop-color="rgb(31.152344%, 0%, 50.415039%)" offset="0.742188"/><stop stop-opacity="1" stop-color="rgb(31.428528%, 0%, 50.267029%)" offset="0.75"/><stop stop-opacity="1" stop-color="rgb(31.704712%, 0%, 50.120544%)" offset="0.757812"/><stop stop-opacity="1" stop-color="rgb(31.97937%, 0%, 49.97406%)" offset="0.765625"/><stop stop-opacity="1" stop-color="rgb(32.255554%, 0%, 49.82605%)" offset="0.773438"/><stop stop-opacity="1" stop-color="rgb(32.531738%, 0%, 49.679565%)" offset="0.78125"/><stop stop-opacity="1" stop-color="rgb(32.806396%, 0%, 49.533081%)" offset="0.789062"/><stop stop-opacity="1" stop-color="rgb(33.082581%, 0%, 49.385071%)" offset="0.796875"/><stop stop-opacity="1" stop-color="rgb(33.358765%, 0%, 49.238586%)" offset="0.804688"/><stop stop-opacity="1" stop-color="rgb(33.633423%, 0%, 49.090576%)" offset="0.8125"/><stop stop-opacity="1" stop-color="rgb(33.909607%, 0%, 48.944092%)" offset="0.820312"/><stop stop-opacity="1" stop-color="rgb(34.185791%, 0%, 48.797607%)" offset="0.828125"/><stop stop-opacity="1" stop-color="rgb(34.460449%, 0%, 48.649597%)" offset="0.835938"/><stop stop-opacity="1" stop-color="rgb(34.736633%, 0%, 48.503113%)" offset="0.84375"/><stop stop-opacity="1" stop-color="rgb(35.012817%, 0%, 48.356628%)" offset="0.851562"/><stop stop-opacity="1" stop-color="rgb(35.287476%, 0%, 48.208618%)" offset="0.859375"/><stop stop-opacity="1" stop-color="rgb(35.56366%, 0%, 48.062134%)" offset="0.867188"/><stop stop-opacity="1" stop-color="rgb(35.839844%, 0%, 47.915649%)" offset="0.875"/><stop stop-opacity="1" stop-color="rgb(36.116028%, 0%, 47.767639%)" offset="0.882812"/><stop stop-opacity="1" stop-color="rgb(36.390686%, 0%, 47.621155%)" offset="0.890625"/><stop stop-opacity="1" stop-color="rgb(36.66687%, 0%, 47.473145%)" offset="0.898438"/><stop stop-opacity="1" stop-color="rgb(36.943054%, 0%, 47.32666%)" offset="0.90625"/><stop stop-opacity="1" stop-color="rgb(37.217712%, 0%, 47.180176%)" offset="0.914062"/><stop stop-opacity="1" stop-color="rgb(37.493896%, 0%, 47.032166%)" offset="0.921875"/><stop stop-opacity="1" stop-color="rgb(37.770081%, 0%, 46.885681%)" offset="0.929687"/><stop stop-opacity="1" stop-color="rgb(38.044739%, 0%, 46.739197%)" offset="0.9375"/><stop stop-opacity="1" stop-color="rgb(38.320923%, 0%, 46.591187%)" offset="0.945312"/><stop stop-opacity="1" stop-color="rgb(38.597107%, 0%, 46.444702%)" offset="0.953125"/><stop stop-opacity="1" stop-color="rgb(38.871765%, 0%, 46.298218%)" offset="0.960937"/><stop stop-opacity="1" stop-color="rgb(39.147949%, 0%, 46.150208%)" offset="0.96875"/><stop stop-opacity="1" stop-color="rgb(39.424133%, 0%, 46.003723%)" offset="0.976562"/><stop stop-opacity="1" stop-color="rgb(39.698792%, 0%, 45.857239%)" offset="0.984375"/><stop stop-opacity="1" stop-color="rgb(39.974976%, 0%, 45.709229%)" offset="0.992188"/><stop stop-opacity="1" stop-color="rgb(40.25116%, 0%, 45.562744%)" offset="1"/></linearGradient><clipPath id="ec63c412c3"><path d="M 112.5 277 L 1012.5 277 L 1012.5 847 L 112.5 847 Z M 112.5 277 " clip-rule="nonzero"/></clipPath><clipPath id="a7c25b67ab"><path d="M 393.46875 429 L 761.71875 429 L 761.71875 770 L 393.46875 770 Z M 393.46875 429 " clip-rule="nonzero"/></clipPath></defs><rect x="-112.5" width="1350" fill="#ffffff" y="-112.499995" height="1349.99994" fill-opacity="1"/><rect x="-112.5" fill="url(#2728e959d0)" width="1350" y="-112.499995" height="1349.99994"/><g clip-path="url(#ec63c412c3)"><path fill="#000000" d="M 852.914062 846.824219 L 270.648438 846.824219 C 182.949219 846.824219 112.5 776.417969 112.5 688.773438 C 112.5 603.996094 180.070312 533.59375 264.894531 530.71875 C 263.457031 519.222656 262.019531 507.730469 262.019531 494.796875 C 262.019531 374.101562 359.785156 277.835938 479.113281 277.835938 C 551 277.835938 617.132812 313.753906 658.824219 371.230469 C 683.265625 358.296875 710.582031 351.113281 739.335938 351.113281 C 832.789062 351.113281 910.421875 427.265625 910.421875 522.097656 C 910.421875 527.84375 910.421875 535.03125 908.984375 540.777344 C 969.367188 563.765625 1012.5 622.675781 1012.5 688.773438 C 1011.0625 776.417969 939.175781 846.824219 852.914062 846.824219 Z M 270.648438 578.136719 C 208.824219 578.136719 159.945312 628.425781 159.945312 688.773438 C 159.945312 749.121094 210.261719 799.410156 270.648438 799.410156 L 852.914062 799.410156 C 914.738281 799.410156 963.617188 749.121094 963.617188 688.773438 C 963.617188 637.046875 926.238281 591.066406 875.917969 579.570312 L 851.476562 573.824219 L 857.226562 549.398438 C 860.105469 539.339844 861.542969 529.28125 861.542969 519.222656 C 861.542969 451.691406 806.910156 395.65625 737.898438 395.65625 C 710.582031 395.65625 686.140625 404.277344 664.578125 420.082031 L 643.011719 437.324219 L 630.070312 415.769531 C 599.878906 359.734375 542.371094 325.25 479.113281 325.25 C 385.664062 325.25 309.464844 401.402344 309.464844 494.796875 C 309.464844 512.039062 312.339844 529.28125 318.089844 546.523438 L 328.15625 578.132812 L 270.648438 578.132812 Z M 270.648438 578.136719 " fill-opacity="1" fill-rule="nonzero"/></g><g clip-path="url(#a7c25b67ab)"><path fill="#000000" d="M 761.085938 433.132812 L 760.707031 432.183594 C 760.378906 431.789062 760.019531 431.429688 759.628906 431.105469 C 759.40625 430.839844 759.152344 430.609375 758.867188 430.410156 C 758.742188 430.363281 758.613281 430.363281 758.488281 430.410156 C 757.757812 429.957031 756.96875 429.675781 756.117188 429.566406 C 755.265625 429.453125 754.429688 429.523438 753.605469 429.777344 L 397.78125 538.410156 C 397.222656 538.597656 396.703125 538.859375 396.214844 539.191406 C 395.730469 539.527344 395.300781 539.921875 394.925781 540.375 C 394.550781 540.828125 394.246094 541.324219 394.007812 541.863281 C 393.773438 542.398438 393.613281 542.960938 393.53125 543.542969 C 393.441406 544.160156 393.441406 544.777344 393.535156 545.390625 C 393.625 546.007812 393.800781 546.597656 394.066406 547.160156 C 394.332031 547.726562 394.671875 548.238281 395.089844 548.703125 C 395.503906 549.164062 395.980469 549.558594 396.511719 549.882812 L 511.550781 617.507812 L 508.570312 670.496094 C 508.570312 670.894531 508.609375 671.292969 508.683594 671.6875 C 508.757812 672.078125 508.867188 672.464844 509.015625 672.835938 C 509.164062 673.207031 509.34375 673.5625 509.558594 673.902344 C 509.773438 674.242188 510.015625 674.554688 510.292969 674.847656 C 510.566406 675.140625 510.867188 675.402344 511.191406 675.636719 C 511.515625 675.875 511.859375 676.074219 512.21875 676.246094 C 512.582031 676.414062 512.957031 676.550781 513.347656 676.648438 C 513.734375 676.746094 514.128906 676.808594 514.53125 676.832031 L 560.796875 677.910156 L 632.609375 767.023438 C 633.199219 767.75 633.917969 768.320312 634.757812 768.730469 C 635.601562 769.140625 636.492188 769.351562 637.425781 769.367188 L 638.441406 769.367188 C 639.527344 769.164062 640.492188 768.707031 641.339844 767.992188 C 642.1875 767.28125 642.804688 766.410156 643.195312 765.375 L 760.453125 437.445312 C 760.6875 437.257812 760.902344 437.046875 761.085938 436.8125 C 761.183594 436.175781 761.183594 435.542969 761.085938 434.910156 C 761.152344 434.445312 761.152344 433.980469 761.085938 433.515625 C 761.117188 433.386719 761.117188 433.261719 761.085938 433.132812 Z M 521.121094 664.855469 L 523.023438 631.324219 L 550.65625 665.613281 Z M 528.855469 616.179688 C 527.339844 613.667969 525.398438 611.554688 523.023438 609.839844 L 521.4375 608.953125 L 520.234375 608.570312 L 519.21875 607.9375 L 734.023438 447.777344 L 752.527344 442.132812 Z M 528.855469 616.179688 " fill-opacity="1" fill-rule="nonzero"/></g><path fill="#000000" d="M 454.949219 714.480469 L 456.28125 714.480469 C 456.96875 714.460938 457.632812 714.332031 458.28125 714.097656 C 458.925781 713.859375 459.515625 713.527344 460.054688 713.101562 C 460.59375 712.671875 461.046875 712.167969 461.421875 711.589844 C 461.796875 711.015625 462.066406 710.394531 462.238281 709.726562 C 464.613281 699.53125 468.070312 689.71875 472.613281 680.285156 C 477.160156 670.855469 482.679688 662.035156 489.175781 653.824219 C 489.417969 653.519531 489.625 653.191406 489.804688 652.84375 C 489.984375 652.5 490.132812 652.136719 490.246094 651.765625 C 490.359375 651.390625 490.433594 651.011719 490.476562 650.621094 C 490.519531 650.234375 490.527344 649.847656 490.5 649.457031 C 490.46875 649.066406 490.40625 648.683594 490.304688 648.308594 C 490.207031 647.929688 490.070312 647.566406 489.90625 647.210938 C 489.738281 646.859375 489.539062 646.527344 489.3125 646.210938 C 489.082031 645.894531 488.824219 645.601562 488.542969 645.332031 C 488.222656 645.09375 487.882812 644.886719 487.527344 644.710938 C 487.167969 644.535156 486.796875 644.394531 486.410156 644.289062 C 486.027344 644.183594 485.632812 644.117188 485.238281 644.085938 C 484.839844 644.054688 484.441406 644.058594 484.042969 644.101562 C 483.648438 644.148438 483.257812 644.226562 482.878906 644.34375 C 482.496094 644.460938 482.128906 644.613281 481.777344 644.800781 C 481.421875 644.988281 481.089844 645.207031 480.78125 645.453125 C 480.46875 645.703125 480.183594 645.980469 479.921875 646.285156 C 472.820312 655.203125 466.785156 664.796875 461.824219 675.066406 C 456.859375 685.332031 453.089844 696.019531 450.511719 707.128906 C 450.433594 707.515625 450.390625 707.90625 450.386719 708.300781 C 450.378906 708.695312 450.410156 709.085938 450.476562 709.472656 C 450.542969 709.863281 450.648438 710.242188 450.785156 710.609375 C 450.921875 710.980469 451.09375 711.332031 451.296875 711.671875 C 451.5 712.007812 451.734375 712.324219 451.996094 712.617188 C 452.257812 712.914062 452.546875 713.179688 452.859375 713.417969 C 453.171875 713.660156 453.503906 713.871094 453.855469 714.046875 C 454.207031 714.226562 454.570312 714.371094 454.949219 714.480469 Z M 454.949219 714.480469 " fill-opacity="1" fill-rule="nonzero"/><path fill="#000000" d="M 446.457031 737.613281 L 446.457031 769.304688 C 446.328125 769.773438 446.257812 770.253906 446.238281 770.742188 C 446.222656 771.226562 446.261719 771.710938 446.355469 772.1875 C 446.449219 772.664062 446.59375 773.125 446.792969 773.570312 C 446.996094 774.015625 447.242188 774.429688 447.539062 774.816406 C 447.832031 775.203125 448.167969 775.550781 448.546875 775.863281 C 448.921875 776.171875 449.328125 776.433594 449.765625 776.648438 C 450.203125 776.863281 450.65625 777.027344 451.132812 777.140625 C 451.605469 777.25 452.085938 777.304688 452.574219 777.304688 C 453.058594 777.304688 453.542969 777.25 454.015625 777.140625 C 454.488281 777.027344 454.945312 776.863281 455.382812 776.648438 C 455.820312 776.433594 456.226562 776.171875 456.601562 775.863281 C 456.976562 775.550781 457.3125 775.203125 457.609375 774.816406 C 457.90625 774.429688 458.152344 774.015625 458.351562 773.570312 C 458.550781 773.125 458.699219 772.664062 458.792969 772.1875 C 458.886719 771.710938 458.925781 771.226562 458.90625 770.742188 C 458.890625 770.253906 458.816406 769.773438 458.691406 769.304688 L 458.691406 737.613281 C 458.507812 736.945312 458.222656 736.320312 457.835938 735.742188 C 457.445312 735.164062 456.976562 734.664062 456.421875 734.242188 C 455.871094 733.820312 455.265625 733.496094 454.605469 733.273438 C 453.945312 733.050781 453.269531 732.9375 452.574219 732.9375 C 451.878906 732.9375 451.199219 733.050781 450.542969 733.273438 C 449.882812 733.496094 449.277344 733.820312 448.722656 734.242188 C 448.171875 734.664062 447.699219 735.164062 447.3125 735.742188 C 446.925781 736.320312 446.640625 736.945312 446.457031 737.613281 Z M 446.457031 737.613281 " fill-opacity="1" fill-rule="nonzero"/></svg>